<?xml version="1.0" encoding="utf-8" standalone="no"?>
<!DOCTYPE svg PUBLIC "-//W3C//DTD SVG 1.1//EN"
  "http://www.w3.org/Graphics/SVG/1.1/DTD/svg11.dtd">
<svg xmlns:xlink="http://www.w3.org/1999/xlink" width="1000.175pt" height="568.037875pt" viewBox="0 0 1000.175 568.037875" xmlns="http://www.w3.org/2000/svg" version="1.1">
 <metadata>
  <rdf:RDF xmlns:dc="http://purl.org/dc/elements/1.1/" xmlns:cc="http://creativecommons.org/ns#" xmlns:rdf="http://www.w3.org/1999/02/22-rdf-syntax-ns#">
   <cc:Work>
    <dc:type rdf:resource="http://purl.org/dc/dcmitype/StillImage"/>
    <dc:date>2025-11-07T10:15:10.061842</dc:date>
    <dc:format>image/svg+xml</dc:format>
    <dc:creator>
     <cc:Agent>
      <dc:title>Matplotlib v3.9.4, https://matplotlib.org/</dc:title>
     </cc:Agent>
    </dc:creator>
   </cc:Work>
  </rdf:RDF>
 </metadata>
 <defs>
  <style type="text/css">*{stroke-linejoin: round; stroke-linecap: butt}</style>
 </defs>
 <g id="figure_1">
  <g id="patch_1">
   <path d="M 0 568.037875 
L 1000.175 568.037875 
L 1000.175 0 
L 0 0 
z
"/>
  </g>
  <g id="axes_1">
   <g id="patch_2">
    <path d="M 48.90125 528.546 
L 957.63625 528.546 
L 957.63625 57.274 
L 48.90125 57.274 
z
"/>
   </g>
   <g id="patch_3">
    <path d="M 205.630272 528.546 
L 265.077397 528.546 
L 265.077397 57.274 
L 205.630272 57.274 
z
" clip-path="url(#pe4f3b12f0e)" style="fill: #ffff00; opacity: 0.15; stroke: #ffff00; stroke-linejoin: miter"/>
   </g>
   <g id="patch_4">
    <path d="M 687.824564 528.546 
L 720.802531 528.546 
L 720.802531 57.274 
L 687.824564 57.274 
z
" clip-path="url(#pe4f3b12f0e)" style="fill: #ff0000; opacity: 0.15; stroke: #ff0000; stroke-linejoin: miter"/>
   </g>
   <g id="patch_5">
    <path d="M 724.165416 528.546 
L 916.330114 528.546 
L 916.330114 57.274 
L 724.165416 57.274 
z
" clip-path="url(#pe4f3b12f0e)" style="fill: #00ffff; opacity: 0.1; stroke: #00ffff; stroke-linejoin: miter"/>
   </g>
   <g id="matplotlib.axis_1">
    <g id="xtick_1">
     <g id="line2d_1">
      <path d="M 50.503649 528.546 
L 50.503649 57.274 
" clip-path="url(#pe4f3b12f0e)" style="fill: none; stroke: #ffffff; stroke-opacity: 0.2; stroke-width: 0.8; stroke-linecap: square"/>
     </g>
     <g id="line2d_2">
      <defs>
       <path id="m1228d7030b" d="M 0 0 
L 0 3.5 
" style="stroke: #ffffff; stroke-width: 0.8"/>
      </defs>
      <g>
       <use xlink:href="#m1228d7030b" x="50.503649" y="528.546" style="fill: #ffffff; stroke: #ffffff; stroke-width: 0.8"/>
      </g>
     </g>
     <g id="text_1">
      <!-- 2004 -->
      <g style="fill: #ffffff" transform="translate(37.778649 543.144437) scale(0.1 -0.1)">
       <defs>
        <path id="DejaVuSans-32" d="M 1228 531 
L 3431 531 
L 3431 0 
L 469 0 
L 469 531 
Q 828 903 1448 1529 
Q 2069 2156 2228 2338 
Q 2531 2678 2651 2914 
Q 2772 3150 2772 3378 
Q 2772 3750 2511 3984 
Q 2250 4219 1831 4219 
Q 1534 4219 1204 4116 
Q 875 4013 500 3803 
L 500 4441 
Q 881 4594 1212 4672 
Q 1544 4750 1819 4750 
Q 2544 4750 2975 4387 
Q 3406 4025 3406 3419 
Q 3406 3131 3298 2873 
Q 3191 2616 2906 2266 
Q 2828 2175 2409 1742 
Q 1991 1309 1228 531 
z
" transform="scale(0.015625)"/>
        <path id="DejaVuSans-30" d="M 2034 4250 
Q 1547 4250 1301 3770 
Q 1056 3291 1056 2328 
Q 1056 1369 1301 889 
Q 1547 409 2034 409 
Q 2525 409 2770 889 
Q 3016 1369 3016 2328 
Q 3016 3291 2770 3770 
Q 2525 4250 2034 4250 
z
M 2034 4750 
Q 2819 4750 3233 4129 
Q 3647 3509 3647 2328 
Q 3647 1150 3233 529 
Q 2819 -91 2034 -91 
Q 1250 -91 836 529 
Q 422 1150 422 2328 
Q 422 3509 836 4129 
Q 1250 4750 2034 4750 
z
" transform="scale(0.015625)"/>
        <path id="DejaVuSans-34" d="M 2419 4116 
L 825 1625 
L 2419 1625 
L 2419 4116 
z
M 2253 4666 
L 3047 4666 
L 3047 1625 
L 3713 1625 
L 3713 1100 
L 3047 1100 
L 3047 0 
L 2419 0 
L 2419 1100 
L 313 1100 
L 313 1709 
L 2253 4666 
z
" transform="scale(0.015625)"/>
       </defs>
       <use xlink:href="#DejaVuSans-32"/>
       <use xlink:href="#DejaVuSans-30" x="63.623047"/>
       <use xlink:href="#DejaVuSans-30" x="127.246094"/>
       <use xlink:href="#DejaVuSans-34" x="190.869141"/>
      </g>
     </g>
    </g>
    <g id="xtick_2">
     <g id="line2d_3">
      <path d="M 208.993157 528.546 
L 208.993157 57.274 
" clip-path="url(#pe4f3b12f0e)" style="fill: none; stroke: #ffffff; stroke-opacity: 0.2; stroke-width: 0.8; stroke-linecap: square"/>
     </g>
     <g id="line2d_4">
      <g>
       <use xlink:href="#m1228d7030b" x="208.993157" y="528.546" style="fill: #ffffff; stroke: #ffffff; stroke-width: 0.8"/>
      </g>
     </g>
     <g id="text_2">
      <!-- 2008 -->
      <g style="fill: #ffffff" transform="translate(196.268157 543.144437) scale(0.1 -0.1)">
       <defs>
        <path id="DejaVuSans-38" d="M 2034 2216 
Q 1584 2216 1326 1975 
Q 1069 1734 1069 1313 
Q 1069 891 1326 650 
Q 1584 409 2034 409 
Q 2484 409 2743 651 
Q 3003 894 3003 1313 
Q 3003 1734 2745 1975 
Q 2488 2216 2034 2216 
z
M 1403 2484 
Q 997 2584 770 2862 
Q 544 3141 544 3541 
Q 544 4100 942 4425 
Q 1341 4750 2034 4750 
Q 2731 4750 3128 4425 
Q 3525 4100 3525 3541 
Q 3525 3141 3298 2862 
Q 3072 2584 2669 2484 
Q 3125 2378 3379 2068 
Q 3634 1759 3634 1313 
Q 3634 634 3220 271 
Q 2806 -91 2034 -91 
Q 1263 -91 848 271 
Q 434 634 434 1313 
Q 434 1759 690 2068 
Q 947 2378 1403 2484 
z
M 1172 3481 
Q 1172 3119 1398 2916 
Q 1625 2713 2034 2713 
Q 2441 2713 2670 2916 
Q 2900 3119 2900 3481 
Q 2900 3844 2670 4047 
Q 2441 4250 2034 4250 
Q 1625 4250 1398 4047 
Q 1172 3844 1172 3481 
z
" transform="scale(0.015625)"/>
       </defs>
       <use xlink:href="#DejaVuSans-32"/>
       <use xlink:href="#DejaVuSans-30" x="63.623047"/>
       <use xlink:href="#DejaVuSans-30" x="127.246094"/>
       <use xlink:href="#DejaVuSans-38" x="190.869141"/>
      </g>
     </g>
    </g>
    <g id="xtick_3">
     <g id="line2d_5">
      <path d="M 367.482664 528.546 
L 367.482664 57.274 
" clip-path="url(#pe4f3b12f0e)" style="fill: none; stroke: #ffffff; stroke-opacity: 0.2; stroke-width: 0.8; stroke-linecap: square"/>
     </g>
     <g id="line2d_6">
      <g>
       <use xlink:href="#m1228d7030b" x="367.482664" y="528.546" style="fill: #ffffff; stroke: #ffffff; stroke-width: 0.8"/>
      </g>
     </g>
     <g id="text_3">
      <!-- 2012 -->
      <g style="fill: #ffffff" transform="translate(354.757664 543.144437) scale(0.1 -0.1)">
       <defs>
        <path id="DejaVuSans-31" d="M 794 531 
L 1825 531 
L 1825 4091 
L 703 3866 
L 703 4441 
L 1819 4666 
L 2450 4666 
L 2450 531 
L 3481 531 
L 3481 0 
L 794 0 
L 794 531 
z
" transform="scale(0.015625)"/>
       </defs>
       <use xlink:href="#DejaVuSans-32"/>
       <use xlink:href="#DejaVuSans-30" x="63.623047"/>
       <use xlink:href="#DejaVuSans-31" x="127.246094"/>
       <use xlink:href="#DejaVuSans-32" x="190.869141"/>
      </g>
     </g>
    </g>
    <g id="xtick_4">
     <g id="line2d_7">
      <path d="M 525.972172 528.546 
L 525.972172 57.274 
" clip-path="url(#pe4f3b12f0e)" style="fill: none; stroke: #ffffff; stroke-opacity: 0.2; stroke-width: 0.8; stroke-linecap: square"/>
     </g>
     <g id="line2d_8">
      <g>
       <use xlink:href="#m1228d7030b" x="525.972172" y="528.546" style="fill: #ffffff; stroke: #ffffff; stroke-width: 0.8"/>
      </g>
     </g>
     <g id="text_4">
      <!-- 2016 -->
      <g style="fill: #ffffff" transform="translate(513.247172 543.144437) scale(0.1 -0.1)">
       <defs>
        <path id="DejaVuSans-36" d="M 2113 2584 
Q 1688 2584 1439 2293 
Q 1191 2003 1191 1497 
Q 1191 994 1439 701 
Q 1688 409 2113 409 
Q 2538 409 2786 701 
Q 3034 994 3034 1497 
Q 3034 2003 2786 2293 
Q 2538 2584 2113 2584 
z
M 3366 4563 
L 3366 3988 
Q 3128 4100 2886 4159 
Q 2644 4219 2406 4219 
Q 1781 4219 1451 3797 
Q 1122 3375 1075 2522 
Q 1259 2794 1537 2939 
Q 1816 3084 2150 3084 
Q 2853 3084 3261 2657 
Q 3669 2231 3669 1497 
Q 3669 778 3244 343 
Q 2819 -91 2113 -91 
Q 1303 -91 875 529 
Q 447 1150 447 2328 
Q 447 3434 972 4092 
Q 1497 4750 2381 4750 
Q 2619 4750 2861 4703 
Q 3103 4656 3366 4563 
z
" transform="scale(0.015625)"/>
       </defs>
       <use xlink:href="#DejaVuSans-32"/>
       <use xlink:href="#DejaVuSans-30" x="63.623047"/>
       <use xlink:href="#DejaVuSans-31" x="127.246094"/>
       <use xlink:href="#DejaVuSans-36" x="190.869141"/>
      </g>
     </g>
    </g>
    <g id="xtick_5">
     <g id="line2d_9">
      <path d="M 684.461679 528.546 
L 684.461679 57.274 
" clip-path="url(#pe4f3b12f0e)" style="fill: none; stroke: #ffffff; stroke-opacity: 0.2; stroke-width: 0.8; stroke-linecap: square"/>
     </g>
     <g id="line2d_10">
      <g>
       <use xlink:href="#m1228d7030b" x="684.461679" y="528.546" style="fill: #ffffff; stroke: #ffffff; stroke-width: 0.8"/>
      </g>
     </g>
     <g id="text_5">
      <!-- 2020 -->
      <g style="fill: #ffffff" transform="translate(671.736679 543.144437) scale(0.1 -0.1)">
       <use xlink:href="#DejaVuSans-32"/>
       <use xlink:href="#DejaVuSans-30" x="63.623047"/>
       <use xlink:href="#DejaVuSans-32" x="127.246094"/>
       <use xlink:href="#DejaVuSans-30" x="190.869141"/>
      </g>
     </g>
    </g>
    <g id="xtick_6">
     <g id="line2d_11">
      <path d="M 842.951187 528.546 
L 842.951187 57.274 
" clip-path="url(#pe4f3b12f0e)" style="fill: none; stroke: #ffffff; stroke-opacity: 0.2; stroke-width: 0.8; stroke-linecap: square"/>
     </g>
     <g id="line2d_12">
      <g>
       <use xlink:href="#m1228d7030b" x="842.951187" y="528.546" style="fill: #ffffff; stroke: #ffffff; stroke-width: 0.8"/>
      </g>
     </g>
     <g id="text_6">
      <!-- 2024 -->
      <g style="fill: #ffffff" transform="translate(830.226187 543.144437) scale(0.1 -0.1)">
       <use xlink:href="#DejaVuSans-32"/>
       <use xlink:href="#DejaVuSans-30" x="63.623047"/>
       <use xlink:href="#DejaVuSans-32" x="127.246094"/>
       <use xlink:href="#DejaVuSans-34" x="190.869141"/>
      </g>
     </g>
    </g>
    <g id="text_7">
     <!-- Year -->
     <g style="fill: #ffffff" transform="translate(490.56375 558.34225) scale(0.12 -0.12)">
      <defs>
       <path id="DejaVuSans-59" d="M -13 4666 
L 666 4666 
L 1959 2747 
L 3244 4666 
L 3922 4666 
L 2272 2222 
L 2272 0 
L 1638 0 
L 1638 2222 
L -13 4666 
z
" transform="scale(0.015625)"/>
       <path id="DejaVuSans-65" d="M 3597 1894 
L 3597 1613 
L 953 1613 
Q 991 1019 1311 708 
Q 1631 397 2203 397 
Q 2534 397 2845 478 
Q 3156 559 3463 722 
L 3463 178 
Q 3153 47 2828 -22 
Q 2503 -91 2169 -91 
Q 1331 -91 842 396 
Q 353 884 353 1716 
Q 353 2575 817 3079 
Q 1281 3584 2069 3584 
Q 2775 3584 3186 3129 
Q 3597 2675 3597 1894 
z
M 3022 2063 
Q 3016 2534 2758 2815 
Q 2500 3097 2075 3097 
Q 1594 3097 1305 2825 
Q 1016 2553 972 2059 
L 3022 2063 
z
" transform="scale(0.015625)"/>
       <path id="DejaVuSans-61" d="M 2194 1759 
Q 1497 1759 1228 1600 
Q 959 1441 959 1056 
Q 959 750 1161 570 
Q 1363 391 1709 391 
Q 2188 391 2477 730 
Q 2766 1069 2766 1631 
L 2766 1759 
L 2194 1759 
z
M 3341 1997 
L 3341 0 
L 2766 0 
L 2766 531 
Q 2569 213 2275 61 
Q 1981 -91 1556 -91 
Q 1019 -91 701 211 
Q 384 513 384 1019 
Q 384 1609 779 1909 
Q 1175 2209 1959 2209 
L 2766 2209 
L 2766 2266 
Q 2766 2663 2505 2880 
Q 2244 3097 1772 3097 
Q 1472 3097 1187 3025 
Q 903 2953 641 2809 
L 641 3341 
Q 956 3463 1253 3523 
Q 1550 3584 1831 3584 
Q 2591 3584 2966 3190 
Q 3341 2797 3341 1997 
z
" transform="scale(0.015625)"/>
       <path id="DejaVuSans-72" d="M 2631 2963 
Q 2534 3019 2420 3045 
Q 2306 3072 2169 3072 
Q 1681 3072 1420 2755 
Q 1159 2438 1159 1844 
L 1159 0 
L 581 0 
L 581 3500 
L 1159 3500 
L 1159 2956 
Q 1341 3275 1631 3429 
Q 1922 3584 2338 3584 
Q 2397 3584 2469 3576 
Q 2541 3569 2628 3553 
L 2631 2963 
z
" transform="scale(0.015625)"/>
      </defs>
      <use xlink:href="#DejaVuSans-59"/>
      <use xlink:href="#DejaVuSans-65" x="47.833984"/>
      <use xlink:href="#DejaVuSans-61" x="109.357422"/>
      <use xlink:href="#DejaVuSans-72" x="170.636719"/>
     </g>
    </g>
   </g>
   <g id="matplotlib.axis_2">
    <g id="ytick_1">
     <g id="line2d_13">
      <path d="M 48.90125 476.969063 
L 957.63625 476.969063 
" clip-path="url(#pe4f3b12f0e)" style="fill: none; stroke: #ffffff; stroke-opacity: 0.2; stroke-width: 0.8; stroke-linecap: square"/>
     </g>
     <g id="line2d_14">
      <defs>
       <path id="m1ae953d89a" d="M 0 0 
L -3.5 0 
" style="stroke: #ffffff; stroke-width: 0.8"/>
      </defs>
      <g>
       <use xlink:href="#m1ae953d89a" x="48.90125" y="476.969063" style="fill: #ffffff; stroke: #ffffff; stroke-width: 0.8"/>
      </g>
     </g>
     <g id="text_8">
      <!-- 100 -->
      <g style="fill: #00ff00" transform="translate(22.81375 480.768282) scale(0.1 -0.1)">
       <use xlink:href="#DejaVuSans-31"/>
       <use xlink:href="#DejaVuSans-30" x="63.623047"/>
       <use xlink:href="#DejaVuSans-30" x="127.246094"/>
      </g>
     </g>
    </g>
    <g id="ytick_2">
     <g id="line2d_15">
      <path d="M 48.90125 393.001334 
L 957.63625 393.001334 
" clip-path="url(#pe4f3b12f0e)" style="fill: none; stroke: #ffffff; stroke-opacity: 0.2; stroke-width: 0.8; stroke-linecap: square"/>
     </g>
     <g id="line2d_16">
      <g>
       <use xlink:href="#m1ae953d89a" x="48.90125" y="393.001334" style="fill: #ffffff; stroke: #ffffff; stroke-width: 0.8"/>
      </g>
     </g>
     <g id="text_9">
      <!-- 200 -->
      <g style="fill: #00ff00" transform="translate(22.81375 396.800552) scale(0.1 -0.1)">
       <use xlink:href="#DejaVuSans-32"/>
       <use xlink:href="#DejaVuSans-30" x="63.623047"/>
       <use xlink:href="#DejaVuSans-30" x="127.246094"/>
      </g>
     </g>
    </g>
    <g id="ytick_3">
     <g id="line2d_17">
      <path d="M 48.90125 309.033604 
L 957.63625 309.033604 
" clip-path="url(#pe4f3b12f0e)" style="fill: none; stroke: #ffffff; stroke-opacity: 0.2; stroke-width: 0.8; stroke-linecap: square"/>
     </g>
     <g id="line2d_18">
      <g>
       <use xlink:href="#m1ae953d89a" x="48.90125" y="309.033604" style="fill: #ffffff; stroke: #ffffff; stroke-width: 0.8"/>
      </g>
     </g>
     <g id="text_10">
      <!-- 300 -->
      <g style="fill: #00ff00" transform="translate(22.81375 312.832823) scale(0.1 -0.1)">
       <defs>
        <path id="DejaVuSans-33" d="M 2597 2516 
Q 3050 2419 3304 2112 
Q 3559 1806 3559 1356 
Q 3559 666 3084 287 
Q 2609 -91 1734 -91 
Q 1441 -91 1130 -33 
Q 819 25 488 141 
L 488 750 
Q 750 597 1062 519 
Q 1375 441 1716 441 
Q 2309 441 2620 675 
Q 2931 909 2931 1356 
Q 2931 1769 2642 2001 
Q 2353 2234 1838 2234 
L 1294 2234 
L 1294 2753 
L 1863 2753 
Q 2328 2753 2575 2939 
Q 2822 3125 2822 3475 
Q 2822 3834 2567 4026 
Q 2313 4219 1838 4219 
Q 1578 4219 1281 4162 
Q 984 4106 628 3988 
L 628 4550 
Q 988 4650 1302 4700 
Q 1616 4750 1894 4750 
Q 2613 4750 3031 4423 
Q 3450 4097 3450 3541 
Q 3450 3153 3228 2886 
Q 3006 2619 2597 2516 
z
" transform="scale(0.015625)"/>
       </defs>
       <use xlink:href="#DejaVuSans-33"/>
       <use xlink:href="#DejaVuSans-30" x="63.623047"/>
       <use xlink:href="#DejaVuSans-30" x="127.246094"/>
      </g>
     </g>
    </g>
    <g id="ytick_4">
     <g id="line2d_19">
      <path d="M 48.90125 225.065874 
L 957.63625 225.065874 
" clip-path="url(#pe4f3b12f0e)" style="fill: none; stroke: #ffffff; stroke-opacity: 0.2; stroke-width: 0.8; stroke-linecap: square"/>
     </g>
     <g id="line2d_20">
      <g>
       <use xlink:href="#m1ae953d89a" x="48.90125" y="225.065874" style="fill: #ffffff; stroke: #ffffff; stroke-width: 0.8"/>
      </g>
     </g>
     <g id="text_11">
      <!-- 400 -->
      <g style="fill: #00ff00" transform="translate(22.81375 228.865093) scale(0.1 -0.1)">
       <use xlink:href="#DejaVuSans-34"/>
       <use xlink:href="#DejaVuSans-30" x="63.623047"/>
       <use xlink:href="#DejaVuSans-30" x="127.246094"/>
      </g>
     </g>
    </g>
    <g id="ytick_5">
     <g id="line2d_21">
      <path d="M 48.90125 141.098144 
L 957.63625 141.098144 
" clip-path="url(#pe4f3b12f0e)" style="fill: none; stroke: #ffffff; stroke-opacity: 0.2; stroke-width: 0.8; stroke-linecap: square"/>
     </g>
     <g id="line2d_22">
      <g>
       <use xlink:href="#m1ae953d89a" x="48.90125" y="141.098144" style="fill: #ffffff; stroke: #ffffff; stroke-width: 0.8"/>
      </g>
     </g>
     <g id="text_12">
      <!-- 500 -->
      <g style="fill: #00ff00" transform="translate(22.81375 144.897363) scale(0.1 -0.1)">
       <defs>
        <path id="DejaVuSans-35" d="M 691 4666 
L 3169 4666 
L 3169 4134 
L 1269 4134 
L 1269 2991 
Q 1406 3038 1543 3061 
Q 1681 3084 1819 3084 
Q 2600 3084 3056 2656 
Q 3513 2228 3513 1497 
Q 3513 744 3044 326 
Q 2575 -91 1722 -91 
Q 1428 -91 1123 -41 
Q 819 9 494 109 
L 494 744 
Q 775 591 1075 516 
Q 1375 441 1709 441 
Q 2250 441 2565 725 
Q 2881 1009 2881 1497 
Q 2881 1984 2565 2268 
Q 2250 2553 1709 2553 
Q 1456 2553 1204 2497 
Q 953 2441 691 2322 
L 691 4666 
z
" transform="scale(0.015625)"/>
       </defs>
       <use xlink:href="#DejaVuSans-35"/>
       <use xlink:href="#DejaVuSans-30" x="63.623047"/>
       <use xlink:href="#DejaVuSans-30" x="127.246094"/>
      </g>
     </g>
    </g>
    <g id="text_13">
     <!-- S&amp;P 500 (indexed to 100 in 2005) -->
     <g style="fill: #00ff00" transform="translate(16.318125 394.536875) rotate(-90) scale(0.12 -0.12)">
      <defs>
       <path id="DejaVuSans-53" d="M 3425 4513 
L 3425 3897 
Q 3066 4069 2747 4153 
Q 2428 4238 2131 4238 
Q 1616 4238 1336 4038 
Q 1056 3838 1056 3469 
Q 1056 3159 1242 3001 
Q 1428 2844 1947 2747 
L 2328 2669 
Q 3034 2534 3370 2195 
Q 3706 1856 3706 1288 
Q 3706 609 3251 259 
Q 2797 -91 1919 -91 
Q 1588 -91 1214 -16 
Q 841 59 441 206 
L 441 856 
Q 825 641 1194 531 
Q 1563 422 1919 422 
Q 2459 422 2753 634 
Q 3047 847 3047 1241 
Q 3047 1584 2836 1778 
Q 2625 1972 2144 2069 
L 1759 2144 
Q 1053 2284 737 2584 
Q 422 2884 422 3419 
Q 422 4038 858 4394 
Q 1294 4750 2059 4750 
Q 2388 4750 2728 4690 
Q 3069 4631 3425 4513 
z
" transform="scale(0.015625)"/>
       <path id="DejaVuSans-26" d="M 1556 2509 
Q 1272 2256 1139 2004 
Q 1006 1753 1006 1478 
Q 1006 1022 1337 719 
Q 1669 416 2169 416 
Q 2466 416 2725 514 
Q 2984 613 3213 813 
L 1556 2509 
z
M 1997 2859 
L 3584 1234 
Q 3769 1513 3872 1830 
Q 3975 2147 3994 2503 
L 4575 2503 
Q 4538 2091 4375 1687 
Q 4213 1284 3922 891 
L 4794 0 
L 4006 0 
L 3559 459 
Q 3234 181 2878 45 
Q 2522 -91 2113 -91 
Q 1359 -91 881 339 
Q 403 769 403 1441 
Q 403 1841 612 2192 
Q 822 2544 1241 2853 
Q 1091 3050 1012 3245 
Q 934 3441 934 3628 
Q 934 4134 1281 4442 
Q 1628 4750 2203 4750 
Q 2463 4750 2720 4694 
Q 2978 4638 3244 4525 
L 3244 3956 
Q 2972 4103 2725 4179 
Q 2478 4256 2266 4256 
Q 1938 4256 1733 4082 
Q 1528 3909 1528 3634 
Q 1528 3475 1620 3314 
Q 1713 3153 1997 2859 
z
" transform="scale(0.015625)"/>
       <path id="DejaVuSans-50" d="M 1259 4147 
L 1259 2394 
L 2053 2394 
Q 2494 2394 2734 2622 
Q 2975 2850 2975 3272 
Q 2975 3691 2734 3919 
Q 2494 4147 2053 4147 
L 1259 4147 
z
M 628 4666 
L 2053 4666 
Q 2838 4666 3239 4311 
Q 3641 3956 3641 3272 
Q 3641 2581 3239 2228 
Q 2838 1875 2053 1875 
L 1259 1875 
L 1259 0 
L 628 0 
L 628 4666 
z
" transform="scale(0.015625)"/>
       <path id="DejaVuSans-20" transform="scale(0.015625)"/>
       <path id="DejaVuSans-28" d="M 1984 4856 
Q 1566 4138 1362 3434 
Q 1159 2731 1159 2009 
Q 1159 1288 1364 580 
Q 1569 -128 1984 -844 
L 1484 -844 
Q 1016 -109 783 600 
Q 550 1309 550 2009 
Q 550 2706 781 3412 
Q 1013 4119 1484 4856 
L 1984 4856 
z
" transform="scale(0.015625)"/>
       <path id="DejaVuSans-69" d="M 603 3500 
L 1178 3500 
L 1178 0 
L 603 0 
L 603 3500 
z
M 603 4863 
L 1178 4863 
L 1178 4134 
L 603 4134 
L 603 4863 
z
" transform="scale(0.015625)"/>
       <path id="DejaVuSans-6e" d="M 3513 2113 
L 3513 0 
L 2938 0 
L 2938 2094 
Q 2938 2591 2744 2837 
Q 2550 3084 2163 3084 
Q 1697 3084 1428 2787 
Q 1159 2491 1159 1978 
L 1159 0 
L 581 0 
L 581 3500 
L 1159 3500 
L 1159 2956 
Q 1366 3272 1645 3428 
Q 1925 3584 2291 3584 
Q 2894 3584 3203 3211 
Q 3513 2838 3513 2113 
z
" transform="scale(0.015625)"/>
       <path id="DejaVuSans-64" d="M 2906 2969 
L 2906 4863 
L 3481 4863 
L 3481 0 
L 2906 0 
L 2906 525 
Q 2725 213 2448 61 
Q 2172 -91 1784 -91 
Q 1150 -91 751 415 
Q 353 922 353 1747 
Q 353 2572 751 3078 
Q 1150 3584 1784 3584 
Q 2172 3584 2448 3432 
Q 2725 3281 2906 2969 
z
M 947 1747 
Q 947 1113 1208 752 
Q 1469 391 1925 391 
Q 2381 391 2643 752 
Q 2906 1113 2906 1747 
Q 2906 2381 2643 2742 
Q 2381 3103 1925 3103 
Q 1469 3103 1208 2742 
Q 947 2381 947 1747 
z
" transform="scale(0.015625)"/>
       <path id="DejaVuSans-78" d="M 3513 3500 
L 2247 1797 
L 3578 0 
L 2900 0 
L 1881 1375 
L 863 0 
L 184 0 
L 1544 1831 
L 300 3500 
L 978 3500 
L 1906 2253 
L 2834 3500 
L 3513 3500 
z
" transform="scale(0.015625)"/>
       <path id="DejaVuSans-74" d="M 1172 4494 
L 1172 3500 
L 2356 3500 
L 2356 3053 
L 1172 3053 
L 1172 1153 
Q 1172 725 1289 603 
Q 1406 481 1766 481 
L 2356 481 
L 2356 0 
L 1766 0 
Q 1100 0 847 248 
Q 594 497 594 1153 
L 594 3053 
L 172 3053 
L 172 3500 
L 594 3500 
L 594 4494 
L 1172 4494 
z
" transform="scale(0.015625)"/>
       <path id="DejaVuSans-6f" d="M 1959 3097 
Q 1497 3097 1228 2736 
Q 959 2375 959 1747 
Q 959 1119 1226 758 
Q 1494 397 1959 397 
Q 2419 397 2687 759 
Q 2956 1122 2956 1747 
Q 2956 2369 2687 2733 
Q 2419 3097 1959 3097 
z
M 1959 3584 
Q 2709 3584 3137 3096 
Q 3566 2609 3566 1747 
Q 3566 888 3137 398 
Q 2709 -91 1959 -91 
Q 1206 -91 779 398 
Q 353 888 353 1747 
Q 353 2609 779 3096 
Q 1206 3584 1959 3584 
z
" transform="scale(0.015625)"/>
       <path id="DejaVuSans-29" d="M 513 4856 
L 1013 4856 
Q 1481 4119 1714 3412 
Q 1947 2706 1947 2009 
Q 1947 1309 1714 600 
Q 1481 -109 1013 -844 
L 513 -844 
Q 928 -128 1133 580 
Q 1338 1288 1338 2009 
Q 1338 2731 1133 3434 
Q 928 4138 513 4856 
z
" transform="scale(0.015625)"/>
      </defs>
      <use xlink:href="#DejaVuSans-53"/>
      <use xlink:href="#DejaVuSans-26" x="63.476562"/>
      <use xlink:href="#DejaVuSans-50" x="141.455078"/>
      <use xlink:href="#DejaVuSans-20" x="201.757812"/>
      <use xlink:href="#DejaVuSans-35" x="233.544922"/>
      <use xlink:href="#DejaVuSans-30" x="297.167969"/>
      <use xlink:href="#DejaVuSans-30" x="360.791016"/>
      <use xlink:href="#DejaVuSans-20" x="424.414062"/>
      <use xlink:href="#DejaVuSans-28" x="456.201172"/>
      <use xlink:href="#DejaVuSans-69" x="495.214844"/>
      <use xlink:href="#DejaVuSans-6e" x="522.998047"/>
      <use xlink:href="#DejaVuSans-64" x="586.376953"/>
      <use xlink:href="#DejaVuSans-65" x="649.853516"/>
      <use xlink:href="#DejaVuSans-78" x="709.626953"/>
      <use xlink:href="#DejaVuSans-65" x="765.681641"/>
      <use xlink:href="#DejaVuSans-64" x="827.205078"/>
      <use xlink:href="#DejaVuSans-20" x="890.681641"/>
      <use xlink:href="#DejaVuSans-74" x="922.46875"/>
      <use xlink:href="#DejaVuSans-6f" x="961.677734"/>
      <use xlink:href="#DejaVuSans-20" x="1022.859375"/>
      <use xlink:href="#DejaVuSans-31" x="1054.646484"/>
      <use xlink:href="#DejaVuSans-30" x="1118.269531"/>
      <use xlink:href="#DejaVuSans-30" x="1181.892578"/>
      <use xlink:href="#DejaVuSans-20" x="1245.515625"/>
      <use xlink:href="#DejaVuSans-69" x="1277.302734"/>
      <use xlink:href="#DejaVuSans-6e" x="1305.085938"/>
      <use xlink:href="#DejaVuSans-20" x="1368.464844"/>
      <use xlink:href="#DejaVuSans-32" x="1400.251953"/>
      <use xlink:href="#DejaVuSans-30" x="1463.875"/>
      <use xlink:href="#DejaVuSans-30" x="1527.498047"/>
      <use xlink:href="#DejaVuSans-35" x="1591.121094"/>
      <use xlink:href="#DejaVuSans-29" x="1654.744141"/>
     </g>
    </g>
   </g>
   <g id="line2d_23">
    <path d="M 90.207386 476.969063 
L 93.570271 475.674172 
L 96.607716 476.01029 
L 99.9706 478.175932 
L 103.225005 477.191688 
L 106.58789 475.487508 
L 109.842295 474.067171 
L 116.568064 473.805776 
L 119.822469 476.218783 
L 123.185354 472.991706 
L 126.439758 471.235933 
L 129.802643 470.052505 
L 133.165528 470.200142 
L 136.202972 468.985518 
L 139.565857 468.386326 
L 142.820262 469.249996 
L 146.183147 471.86876 
L 149.437551 471.366526 
L 152.800436 469.453557 
L 156.163321 467.279149 
L 159.417726 464.035728 
L 162.780611 462.24057 
L 166.035015 460.265752 
L 169.3979 459.715568 
L 172.760785 458.249038 
L 175.798229 460.938697 
L 179.161114 456.909589 
L 182.415519 453.533823 
L 185.778404 453.295532 
L 189.032808 452.853788 
L 192.395693 457.550931 
L 199.012982 451.506651 
L 202.375867 456.927732 
L 205.630272 455.802039 
L 208.993157 462.94214 
L 212.356042 464.640197 
L 215.501966 467.33601 
L 218.864851 463.531681 
L 222.119256 461.204103 
L 225.48214 465.608338 
L 228.736545 471.573219 
L 232.09943 469.85706 
L 235.462315 474.437763 
L 238.716719 492.079963 
L 242.079604 498.175318 
L 245.334009 498.564714 
L 248.696894 499.416633 
L 252.059779 503.705833 
L 255.097223 507.124545 
L 258.460108 500.655003 
L 261.714512 496.798753 
L 265.077397 495.113831 
L 268.331802 494.423958 
L 271.694687 489.171327 
L 275.057572 486.695978 
L 278.311976 485.053363 
L 281.674861 483.603065 
L 284.929266 482.017489 
L 288.292151 481.079035 
L 291.655035 483.525525 
L 294.69248 479.055755 
L 298.055365 475.8384 
L 301.309769 480.973814 
L 304.672654 483.937691 
L 307.927059 484.190542 
L 311.289944 483.658982 
L 314.652828 481.185623 
L 317.907233 477.66731 
L 321.270118 475.726645 
L 324.524523 472.696258 
L 327.887407 469.775599 
L 331.250292 467.039283 
L 334.287737 468.221346 
L 337.650621 466.301025 
L 340.905026 465.817332 
L 344.267911 469.443672 
L 347.522316 466.750251 
L 350.8852 476.69204 
L 354.248085 477.504177 
L 357.50249 475.134765 
L 364.119779 472.56851 
L 367.482664 468.499139 
L 370.845549 464.80971 
L 373.991474 462.197552 
L 377.354358 462.397343 
L 380.608763 465.606793 
L 383.971648 466.871092 
L 387.226053 464.291671 
L 390.588937 461.18771 
L 393.951822 458.346785 
L 397.206227 458.745001 
L 400.569112 461.822821 
L 403.823516 459.848867 
L 407.186401 455.718758 
L 410.549286 453.450327 
L 413.58673 450.71273 
L 416.949615 449.300251 
L 420.20402 444.386142 
L 423.566905 445.883692 
L 426.821309 442.336877 
L 430.184194 442.23608 
L 433.547079 441.022141 
L 436.801484 438.687136 
L 440.164369 434.17289 
L 443.418773 432.450459 
L 446.781658 431.414095 
L 450.144543 431.792346 
L 453.181987 428.488202 
L 456.544872 428.435608 
L 459.799277 426.622943 
L 463.162162 422.548931 
L 466.416566 420.70012 
L 469.779451 421.522313 
L 473.142336 419.269665 
L 476.396741 423.246402 
L 479.759625 415.620291 
L 483.01403 414.931278 
L 486.376915 416.785454 
L 489.7398 412.946214 
L 492.777244 413.102958 
L 496.140129 412.045913 
L 499.394534 410.831916 
L 502.757418 411.731706 
L 506.011823 412.09703 
L 509.374708 415.954759 
L 512.737593 422.739782 
L 515.991997 417.024675 
L 519.354882 413.058461 
L 522.609287 414.944555 
L 525.972172 424.573818 
L 529.335056 425.581608 
L 532.480981 417.22785 
L 535.843866 413.419608 
L 539.09827 414.129268 
L 542.461155 412.825702 
L 545.71556 408.205119 
L 549.078445 406.173803 
L 552.44133 407.580448 
L 555.695734 408.62311 
L 559.058619 407.061981 
L 562.313024 401.259238 
L 565.675909 399.234549 
L 569.038793 395.340065 
L 572.076238 392.716597 
L 575.439123 393.250558 
L 582.056412 387.943015 
L 585.310817 386.51321 
L 588.673702 386.362492 
L 592.036586 383.759896 
L 595.290991 379.200038 
L 598.653876 376.598117 
L 601.908281 371.570692 
L 605.271165 362.653479 
L 608.63405 368.669815 
L 611.671495 368.839074 
L 615.034379 372.332276 
L 618.288784 368.930063 
L 621.651669 365.173128 
L 624.906074 362.380586 
L 628.268958 357.819247 
L 631.631843 354.714716 
L 634.886248 362.961873 
L 638.249133 367.385064 
L 641.503537 378.467254 
L 644.866422 375.618411 
L 648.229307 365.136787 
L 651.266751 361.645647 
L 654.629636 354.551283 
L 657.884041 358.040609 
L 661.246926 355.52031 
L 664.50133 347.990156 
L 667.864215 355.002571 
L 671.2271 348.982184 
L 674.481505 349.300654 
L 677.84439 340.257923 
L 681.098794 335.15159 
L 684.461679 327.940866 
L 687.824564 328.004027 
L 690.970488 372.419809 
L 694.333373 364.631376 
L 697.587778 353.427705 
L 700.950663 340.275234 
L 704.205067 332.957556 
L 707.567952 319.873425 
L 710.930837 321.735099 
L 714.185242 317.955132 
L 717.548127 308.694686 
L 720.802531 298.295272 
L 724.165416 291.298832 
L 727.528301 284.924628 
L 730.565745 283.000209 
L 733.92863 266.605651 
L 737.183035 264.709863 
L 740.54592 259.689175 
L 743.800324 250.789022 
L 747.163209 244.374345 
L 750.526094 244.972976 
L 753.780499 243.895222 
L 757.143383 229.205619 
L 760.397788 228.680656 
L 763.760673 235.856125 
L 767.123558 245.652647 
L 770.161002 248.83075 
L 773.523887 248.828565 
L 776.778292 273.771091 
L 780.141176 283.821941 
L 783.395581 282.913412 
L 786.758466 265.369891 
L 790.121351 287.263798 
L 793.375755 296.110382 
L 796.73864 282.504088 
L 799.993045 282.86711 
L 803.35593 279.435958 
L 806.718815 270.976114 
L 809.756259 278.874285 
L 813.119144 268.006443 
L 816.373548 266.250494 
L 819.736433 252.092521 
L 822.990838 240.528546 
L 826.353723 244.133208 
L 829.716608 247.563514 
L 832.971012 257.492169 
L 836.333897 243.940977 
L 839.588302 227.950104 
L 842.951187 219.460989 
L 846.314071 204.715213 
L 849.459996 193.442045 
L 852.822881 197.570022 
L 856.077285 188.846879 
L 859.44017 176.059549 
L 862.694575 167.327072 
L 866.05746 171.576603 
L 869.420344 161.40972 
L 872.674749 149.251817 
L 876.037634 139.472248 
L 879.292039 133.715759 
L 882.654923 135.946996 
L 886.017808 131.741215 
L 889.055253 156.951735 
L 892.418137 179.303718 
L 895.672542 147.92984 
L 899.035427 132.362294 
L 902.289832 113.41768 
L 905.652716 105.425285 
L 909.015601 92.982408 
L 912.270006 82.202313 
L 915.632891 78.695455 
L 915.632891 78.695455 
" clip-path="url(#pe4f3b12f0e)" style="fill: none; stroke: #00ff00; stroke-width: 2; stroke-linecap: square"/>
   </g>
   <g id="patch_6">
    <path d="M 48.90125 528.546 
L 48.90125 57.274 
" style="fill: none; stroke: #ffffff; stroke-width: 0.8; stroke-linejoin: miter; stroke-linecap: square"/>
   </g>
   <g id="patch_7">
    <path d="M 957.63625 528.546 
L 957.63625 57.274 
" style="fill: none; stroke: #ffffff; stroke-width: 0.8; stroke-linejoin: miter; stroke-linecap: square"/>
   </g>
   <g id="patch_8">
    <path d="M 48.90125 528.546 
L 957.63625 528.546 
" style="fill: none; stroke: #ffffff; stroke-width: 0.8; stroke-linejoin: miter; stroke-linecap: square"/>
   </g>
   <g id="patch_9">
    <path d="M 48.90125 57.274 
L 957.63625 57.274 
" style="fill: none; stroke: #ffffff; stroke-width: 0.8; stroke-linejoin: miter; stroke-linecap: square"/>
   </g>
   <g id="patch_10">
    <path d="M 284.921798 506.871526 
Q 267.757862 512.595887 251.654529 517.966525 
" style="fill: none; opacity: 0.7; stroke: #ffffff; stroke-linecap: round"/>
    <path d="M 256.081819 518.598272 
L 251.654529 517.966525 
L 254.816301 514.803741 
" style="fill: none; opacity: 0.7; stroke: #ffffff; stroke-linecap: round"/>
   </g>
   <g id="text_14">
    <!-- 2008: Markets crash, -->
    <g style="fill: #ffffff" transform="translate(288.292151 479.763757) scale(0.1 -0.1)">
     <defs>
      <path id="DejaVuSans-3a" d="M 750 794 
L 1409 794 
L 1409 0 
L 750 0 
L 750 794 
z
M 750 3309 
L 1409 3309 
L 1409 2516 
L 750 2516 
L 750 3309 
z
" transform="scale(0.015625)"/>
      <path id="DejaVuSans-4d" d="M 628 4666 
L 1569 4666 
L 2759 1491 
L 3956 4666 
L 4897 4666 
L 4897 0 
L 4281 0 
L 4281 4097 
L 3078 897 
L 2444 897 
L 1241 4097 
L 1241 0 
L 628 0 
L 628 4666 
z
" transform="scale(0.015625)"/>
      <path id="DejaVuSans-6b" d="M 581 4863 
L 1159 4863 
L 1159 1991 
L 2875 3500 
L 3609 3500 
L 1753 1863 
L 3688 0 
L 2938 0 
L 1159 1709 
L 1159 0 
L 581 0 
L 581 4863 
z
" transform="scale(0.015625)"/>
      <path id="DejaVuSans-73" d="M 2834 3397 
L 2834 2853 
Q 2591 2978 2328 3040 
Q 2066 3103 1784 3103 
Q 1356 3103 1142 2972 
Q 928 2841 928 2578 
Q 928 2378 1081 2264 
Q 1234 2150 1697 2047 
L 1894 2003 
Q 2506 1872 2764 1633 
Q 3022 1394 3022 966 
Q 3022 478 2636 193 
Q 2250 -91 1575 -91 
Q 1294 -91 989 -36 
Q 684 19 347 128 
L 347 722 
Q 666 556 975 473 
Q 1284 391 1588 391 
Q 1994 391 2212 530 
Q 2431 669 2431 922 
Q 2431 1156 2273 1281 
Q 2116 1406 1581 1522 
L 1381 1569 
Q 847 1681 609 1914 
Q 372 2147 372 2553 
Q 372 3047 722 3315 
Q 1072 3584 1716 3584 
Q 2034 3584 2315 3537 
Q 2597 3491 2834 3397 
z
" transform="scale(0.015625)"/>
      <path id="DejaVuSans-63" d="M 3122 3366 
L 3122 2828 
Q 2878 2963 2633 3030 
Q 2388 3097 2138 3097 
Q 1578 3097 1268 2742 
Q 959 2388 959 1747 
Q 959 1106 1268 751 
Q 1578 397 2138 397 
Q 2388 397 2633 464 
Q 2878 531 3122 666 
L 3122 134 
Q 2881 22 2623 -34 
Q 2366 -91 2075 -91 
Q 1284 -91 818 406 
Q 353 903 353 1747 
Q 353 2603 823 3093 
Q 1294 3584 2113 3584 
Q 2378 3584 2631 3529 
Q 2884 3475 3122 3366 
z
" transform="scale(0.015625)"/>
      <path id="DejaVuSans-68" d="M 3513 2113 
L 3513 0 
L 2938 0 
L 2938 2094 
Q 2938 2591 2744 2837 
Q 2550 3084 2163 3084 
Q 1697 3084 1428 2787 
Q 1159 2491 1159 1978 
L 1159 0 
L 581 0 
L 581 4863 
L 1159 4863 
L 1159 2956 
Q 1366 3272 1645 3428 
Q 1925 3584 2291 3584 
Q 2894 3584 3203 3211 
Q 3513 2838 3513 2113 
z
" transform="scale(0.015625)"/>
      <path id="DejaVuSans-2c" d="M 750 794 
L 1409 794 
L 1409 256 
L 897 -744 
L 494 -744 
L 750 256 
L 750 794 
z
" transform="scale(0.015625)"/>
     </defs>
     <use xlink:href="#DejaVuSans-32"/>
     <use xlink:href="#DejaVuSans-30" x="63.623047"/>
     <use xlink:href="#DejaVuSans-30" x="127.246094"/>
     <use xlink:href="#DejaVuSans-38" x="190.869141"/>
     <use xlink:href="#DejaVuSans-3a" x="254.492188"/>
     <use xlink:href="#DejaVuSans-20" x="288.183594"/>
     <use xlink:href="#DejaVuSans-4d" x="319.970703"/>
     <use xlink:href="#DejaVuSans-61" x="406.25"/>
     <use xlink:href="#DejaVuSans-72" x="467.529297"/>
     <use xlink:href="#DejaVuSans-6b" x="508.642578"/>
     <use xlink:href="#DejaVuSans-65" x="562.927734"/>
     <use xlink:href="#DejaVuSans-74" x="624.451172"/>
     <use xlink:href="#DejaVuSans-73" x="663.660156"/>
     <use xlink:href="#DejaVuSans-20" x="715.759766"/>
     <use xlink:href="#DejaVuSans-63" x="747.546875"/>
     <use xlink:href="#DejaVuSans-72" x="802.527344"/>
     <use xlink:href="#DejaVuSans-61" x="843.640625"/>
     <use xlink:href="#DejaVuSans-73" x="904.919922"/>
     <use xlink:href="#DejaVuSans-68" x="957.019531"/>
     <use xlink:href="#DejaVuSans-2c" x="1020.398438"/>
    </g>
    <!-- unemployment rises -->
    <g style="fill: #ffffff" transform="translate(288.292151 490.96157) scale(0.1 -0.1)">
     <defs>
      <path id="DejaVuSans-75" d="M 544 1381 
L 544 3500 
L 1119 3500 
L 1119 1403 
Q 1119 906 1312 657 
Q 1506 409 1894 409 
Q 2359 409 2629 706 
Q 2900 1003 2900 1516 
L 2900 3500 
L 3475 3500 
L 3475 0 
L 2900 0 
L 2900 538 
Q 2691 219 2414 64 
Q 2138 -91 1772 -91 
Q 1169 -91 856 284 
Q 544 659 544 1381 
z
M 1991 3584 
L 1991 3584 
z
" transform="scale(0.015625)"/>
      <path id="DejaVuSans-6d" d="M 3328 2828 
Q 3544 3216 3844 3400 
Q 4144 3584 4550 3584 
Q 5097 3584 5394 3201 
Q 5691 2819 5691 2113 
L 5691 0 
L 5113 0 
L 5113 2094 
Q 5113 2597 4934 2840 
Q 4756 3084 4391 3084 
Q 3944 3084 3684 2787 
Q 3425 2491 3425 1978 
L 3425 0 
L 2847 0 
L 2847 2094 
Q 2847 2600 2669 2842 
Q 2491 3084 2119 3084 
Q 1678 3084 1418 2786 
Q 1159 2488 1159 1978 
L 1159 0 
L 581 0 
L 581 3500 
L 1159 3500 
L 1159 2956 
Q 1356 3278 1631 3431 
Q 1906 3584 2284 3584 
Q 2666 3584 2933 3390 
Q 3200 3197 3328 2828 
z
" transform="scale(0.015625)"/>
      <path id="DejaVuSans-70" d="M 1159 525 
L 1159 -1331 
L 581 -1331 
L 581 3500 
L 1159 3500 
L 1159 2969 
Q 1341 3281 1617 3432 
Q 1894 3584 2278 3584 
Q 2916 3584 3314 3078 
Q 3713 2572 3713 1747 
Q 3713 922 3314 415 
Q 2916 -91 2278 -91 
Q 1894 -91 1617 61 
Q 1341 213 1159 525 
z
M 3116 1747 
Q 3116 2381 2855 2742 
Q 2594 3103 2138 3103 
Q 1681 3103 1420 2742 
Q 1159 2381 1159 1747 
Q 1159 1113 1420 752 
Q 1681 391 2138 391 
Q 2594 391 2855 752 
Q 3116 1113 3116 1747 
z
" transform="scale(0.015625)"/>
      <path id="DejaVuSans-6c" d="M 603 4863 
L 1178 4863 
L 1178 0 
L 603 0 
L 603 4863 
z
" transform="scale(0.015625)"/>
      <path id="DejaVuSans-79" d="M 2059 -325 
Q 1816 -950 1584 -1140 
Q 1353 -1331 966 -1331 
L 506 -1331 
L 506 -850 
L 844 -850 
Q 1081 -850 1212 -737 
Q 1344 -625 1503 -206 
L 1606 56 
L 191 3500 
L 800 3500 
L 1894 763 
L 2988 3500 
L 3597 3500 
L 2059 -325 
z
" transform="scale(0.015625)"/>
     </defs>
     <use xlink:href="#DejaVuSans-75"/>
     <use xlink:href="#DejaVuSans-6e" x="63.378906"/>
     <use xlink:href="#DejaVuSans-65" x="126.757812"/>
     <use xlink:href="#DejaVuSans-6d" x="188.28125"/>
     <use xlink:href="#DejaVuSans-70" x="285.693359"/>
     <use xlink:href="#DejaVuSans-6c" x="349.169922"/>
     <use xlink:href="#DejaVuSans-6f" x="376.953125"/>
     <use xlink:href="#DejaVuSans-79" x="438.134766"/>
     <use xlink:href="#DejaVuSans-6d" x="497.314453"/>
     <use xlink:href="#DejaVuSans-65" x="594.726562"/>
     <use xlink:href="#DejaVuSans-6e" x="656.25"/>
     <use xlink:href="#DejaVuSans-74" x="719.628906"/>
     <use xlink:href="#DejaVuSans-20" x="758.837891"/>
     <use xlink:href="#DejaVuSans-72" x="790.625"/>
     <use xlink:href="#DejaVuSans-69" x="831.738281"/>
     <use xlink:href="#DejaVuSans-73" x="859.521484"/>
     <use xlink:href="#DejaVuSans-65" x="911.621094"/>
     <use xlink:href="#DejaVuSans-73" x="973.144531"/>
    </g>
    <!-- (coupled) -->
    <g style="fill: #ffffff" transform="translate(288.292151 502.159382) scale(0.1 -0.1)">
     <use xlink:href="#DejaVuSans-28"/>
     <use xlink:href="#DejaVuSans-63" x="39.013672"/>
     <use xlink:href="#DejaVuSans-6f" x="93.994141"/>
     <use xlink:href="#DejaVuSans-75" x="155.175781"/>
     <use xlink:href="#DejaVuSans-70" x="218.554688"/>
     <use xlink:href="#DejaVuSans-6c" x="282.03125"/>
     <use xlink:href="#DejaVuSans-65" x="309.814453"/>
     <use xlink:href="#DejaVuSans-64" x="371.337891"/>
     <use xlink:href="#DejaVuSans-29" x="434.814453"/>
    </g>
   </g>
   <g id="patch_11">
    <path d="M 671.615027 187.811016 
Q 724.932539 206.113852 777.192587 224.053682 
" style="fill: none; opacity: 0.7; stroke: #ffffff; stroke-linecap: round"/>
    <path d="M 774.058659 220.863307 
L 777.192587 224.053682 
L 772.75993 224.6466 
" style="fill: none; opacity: 0.7; stroke: #ffffff; stroke-linecap: round"/>
   </g>
   <g id="text_15">
    <!-- 2020-2025: Markets recover rapidly, -->
    <g style="fill: #ffffff" transform="translate(525.972172 160.686384) scale(0.1 -0.1)">
     <defs>
      <path id="DejaVuSans-2d" d="M 313 2009 
L 1997 2009 
L 1997 1497 
L 313 1497 
L 313 2009 
z
" transform="scale(0.015625)"/>
      <path id="DejaVuSans-76" d="M 191 3500 
L 800 3500 
L 1894 563 
L 2988 3500 
L 3597 3500 
L 2284 0 
L 1503 0 
L 191 3500 
z
" transform="scale(0.015625)"/>
     </defs>
     <use xlink:href="#DejaVuSans-32"/>
     <use xlink:href="#DejaVuSans-30" x="63.623047"/>
     <use xlink:href="#DejaVuSans-32" x="127.246094"/>
     <use xlink:href="#DejaVuSans-30" x="190.869141"/>
     <use xlink:href="#DejaVuSans-2d" x="254.492188"/>
     <use xlink:href="#DejaVuSans-32" x="290.576172"/>
     <use xlink:href="#DejaVuSans-30" x="354.199219"/>
     <use xlink:href="#DejaVuSans-32" x="417.822266"/>
     <use xlink:href="#DejaVuSans-35" x="481.445312"/>
     <use xlink:href="#DejaVuSans-3a" x="545.068359"/>
     <use xlink:href="#DejaVuSans-20" x="578.759766"/>
     <use xlink:href="#DejaVuSans-4d" x="610.546875"/>
     <use xlink:href="#DejaVuSans-61" x="696.826172"/>
     <use xlink:href="#DejaVuSans-72" x="758.105469"/>
     <use xlink:href="#DejaVuSans-6b" x="799.21875"/>
     <use xlink:href="#DejaVuSans-65" x="853.503906"/>
     <use xlink:href="#DejaVuSans-74" x="915.027344"/>
     <use xlink:href="#DejaVuSans-73" x="954.236328"/>
     <use xlink:href="#DejaVuSans-20" x="1006.335938"/>
     <use xlink:href="#DejaVuSans-72" x="1038.123047"/>
     <use xlink:href="#DejaVuSans-65" x="1076.986328"/>
     <use xlink:href="#DejaVuSans-63" x="1138.509766"/>
     <use xlink:href="#DejaVuSans-6f" x="1193.490234"/>
     <use xlink:href="#DejaVuSans-76" x="1254.671875"/>
     <use xlink:href="#DejaVuSans-65" x="1313.851562"/>
     <use xlink:href="#DejaVuSans-72" x="1375.375"/>
     <use xlink:href="#DejaVuSans-20" x="1416.488281"/>
     <use xlink:href="#DejaVuSans-72" x="1448.275391"/>
     <use xlink:href="#DejaVuSans-61" x="1489.388672"/>
     <use xlink:href="#DejaVuSans-70" x="1550.667969"/>
     <use xlink:href="#DejaVuSans-69" x="1614.144531"/>
     <use xlink:href="#DejaVuSans-64" x="1641.927734"/>
     <use xlink:href="#DejaVuSans-6c" x="1705.404297"/>
     <use xlink:href="#DejaVuSans-79" x="1733.1875"/>
     <use xlink:href="#DejaVuSans-2c" x="1792.367188"/>
    </g>
    <!-- unemployment remains elevated -->
    <g style="fill: #ffffff" transform="translate(525.972172 171.884197) scale(0.1 -0.1)">
     <use xlink:href="#DejaVuSans-75"/>
     <use xlink:href="#DejaVuSans-6e" x="63.378906"/>
     <use xlink:href="#DejaVuSans-65" x="126.757812"/>
     <use xlink:href="#DejaVuSans-6d" x="188.28125"/>
     <use xlink:href="#DejaVuSans-70" x="285.693359"/>
     <use xlink:href="#DejaVuSans-6c" x="349.169922"/>
     <use xlink:href="#DejaVuSans-6f" x="376.953125"/>
     <use xlink:href="#DejaVuSans-79" x="438.134766"/>
     <use xlink:href="#DejaVuSans-6d" x="497.314453"/>
     <use xlink:href="#DejaVuSans-65" x="594.726562"/>
     <use xlink:href="#DejaVuSans-6e" x="656.25"/>
     <use xlink:href="#DejaVuSans-74" x="719.628906"/>
     <use xlink:href="#DejaVuSans-20" x="758.837891"/>
     <use xlink:href="#DejaVuSans-72" x="790.625"/>
     <use xlink:href="#DejaVuSans-65" x="829.488281"/>
     <use xlink:href="#DejaVuSans-6d" x="891.011719"/>
     <use xlink:href="#DejaVuSans-61" x="988.423828"/>
     <use xlink:href="#DejaVuSans-69" x="1049.703125"/>
     <use xlink:href="#DejaVuSans-6e" x="1077.486328"/>
     <use xlink:href="#DejaVuSans-73" x="1140.865234"/>
     <use xlink:href="#DejaVuSans-20" x="1192.964844"/>
     <use xlink:href="#DejaVuSans-65" x="1224.751953"/>
     <use xlink:href="#DejaVuSans-6c" x="1286.275391"/>
     <use xlink:href="#DejaVuSans-65" x="1314.058594"/>
     <use xlink:href="#DejaVuSans-76" x="1375.582031"/>
     <use xlink:href="#DejaVuSans-61" x="1434.761719"/>
     <use xlink:href="#DejaVuSans-74" x="1496.041016"/>
     <use xlink:href="#DejaVuSans-65" x="1535.25"/>
     <use xlink:href="#DejaVuSans-64" x="1596.773438"/>
    </g>
    <!-- (decoupled) -->
    <g style="fill: #ffffff" transform="translate(525.972172 183.082009) scale(0.1 -0.1)">
     <use xlink:href="#DejaVuSans-28"/>
     <use xlink:href="#DejaVuSans-64" x="39.013672"/>
     <use xlink:href="#DejaVuSans-65" x="102.490234"/>
     <use xlink:href="#DejaVuSans-63" x="164.013672"/>
     <use xlink:href="#DejaVuSans-6f" x="218.994141"/>
     <use xlink:href="#DejaVuSans-75" x="280.175781"/>
     <use xlink:href="#DejaVuSans-70" x="343.554688"/>
     <use xlink:href="#DejaVuSans-6c" x="407.03125"/>
     <use xlink:href="#DejaVuSans-65" x="434.814453"/>
     <use xlink:href="#DejaVuSans-64" x="496.337891"/>
     <use xlink:href="#DejaVuSans-29" x="559.814453"/>
    </g>
   </g>
   <g id="legend_1">
    <g id="patch_12">
     <path d="M 55.90125 94.63025 
L 190.87 94.63025 
Q 192.87 94.63025 192.87 92.63025 
L 192.87 64.274 
Q 192.87 62.274 190.87 62.274 
L 55.90125 62.274 
Q 53.90125 62.274 53.90125 64.274 
L 53.90125 92.63025 
Q 53.90125 94.63025 55.90125 94.63025 
z
" style="opacity: 0.8; stroke: #cccccc; stroke-linejoin: miter"/>
    </g>
    <g id="line2d_24">
     <path d="M 57.90125 70.372437 
L 67.90125 70.372437 
L 77.90125 70.372437 
" style="fill: none; stroke: #00ff00; stroke-width: 2; stroke-linecap: square"/>
    </g>
    <g id="text_16">
     <!-- S&amp;P 500 (indexed) -->
     <g style="fill: #ffffff" transform="translate(85.90125 73.872437) scale(0.1 -0.1)">
      <use xlink:href="#DejaVuSans-53"/>
      <use xlink:href="#DejaVuSans-26" x="63.476562"/>
      <use xlink:href="#DejaVuSans-50" x="141.455078"/>
      <use xlink:href="#DejaVuSans-20" x="201.757812"/>
      <use xlink:href="#DejaVuSans-35" x="233.544922"/>
      <use xlink:href="#DejaVuSans-30" x="297.167969"/>
      <use xlink:href="#DejaVuSans-30" x="360.791016"/>
      <use xlink:href="#DejaVuSans-20" x="424.414062"/>
      <use xlink:href="#DejaVuSans-28" x="456.201172"/>
      <use xlink:href="#DejaVuSans-69" x="495.214844"/>
      <use xlink:href="#DejaVuSans-6e" x="522.998047"/>
      <use xlink:href="#DejaVuSans-64" x="586.376953"/>
      <use xlink:href="#DejaVuSans-65" x="649.853516"/>
      <use xlink:href="#DejaVuSans-78" x="709.626953"/>
      <use xlink:href="#DejaVuSans-65" x="765.681641"/>
      <use xlink:href="#DejaVuSans-64" x="827.205078"/>
      <use xlink:href="#DejaVuSans-29" x="890.681641"/>
     </g>
    </g>
    <g id="line2d_25">
     <path d="M 57.90125 85.050562 
L 67.90125 85.050562 
L 77.90125 85.050562 
" style="fill: none; stroke-dasharray: 7.4,3.2; stroke-dashoffset: 0; stroke: #ff6666; stroke-width: 2"/>
    </g>
    <g id="text_17">
     <!-- Unemployment Rate -->
     <g style="fill: #ffffff" transform="translate(85.90125 88.550562) scale(0.1 -0.1)">
      <defs>
       <path id="DejaVuSans-55" d="M 556 4666 
L 1191 4666 
L 1191 1831 
Q 1191 1081 1462 751 
Q 1734 422 2344 422 
Q 2950 422 3222 751 
Q 3494 1081 3494 1831 
L 3494 4666 
L 4128 4666 
L 4128 1753 
Q 4128 841 3676 375 
Q 3225 -91 2344 -91 
Q 1459 -91 1007 375 
Q 556 841 556 1753 
L 556 4666 
z
" transform="scale(0.015625)"/>
       <path id="DejaVuSans-52" d="M 2841 2188 
Q 3044 2119 3236 1894 
Q 3428 1669 3622 1275 
L 4263 0 
L 3584 0 
L 2988 1197 
Q 2756 1666 2539 1819 
Q 2322 1972 1947 1972 
L 1259 1972 
L 1259 0 
L 628 0 
L 628 4666 
L 2053 4666 
Q 2853 4666 3247 4331 
Q 3641 3997 3641 3322 
Q 3641 2881 3436 2590 
Q 3231 2300 2841 2188 
z
M 1259 4147 
L 1259 2491 
L 2053 2491 
Q 2509 2491 2742 2702 
Q 2975 2913 2975 3322 
Q 2975 3731 2742 3939 
Q 2509 4147 2053 4147 
L 1259 4147 
z
" transform="scale(0.015625)"/>
      </defs>
      <use xlink:href="#DejaVuSans-55"/>
      <use xlink:href="#DejaVuSans-6e" x="73.193359"/>
      <use xlink:href="#DejaVuSans-65" x="136.572266"/>
      <use xlink:href="#DejaVuSans-6d" x="198.095703"/>
      <use xlink:href="#DejaVuSans-70" x="295.507812"/>
      <use xlink:href="#DejaVuSans-6c" x="358.984375"/>
      <use xlink:href="#DejaVuSans-6f" x="386.767578"/>
      <use xlink:href="#DejaVuSans-79" x="447.949219"/>
      <use xlink:href="#DejaVuSans-6d" x="507.128906"/>
      <use xlink:href="#DejaVuSans-65" x="604.541016"/>
      <use xlink:href="#DejaVuSans-6e" x="666.064453"/>
      <use xlink:href="#DejaVuSans-74" x="729.443359"/>
      <use xlink:href="#DejaVuSans-20" x="768.652344"/>
      <use xlink:href="#DejaVuSans-52" x="800.439453"/>
      <use xlink:href="#DejaVuSans-61" x="867.671875"/>
      <use xlink:href="#DejaVuSans-74" x="928.951172"/>
      <use xlink:href="#DejaVuSans-65" x="968.160156"/>
     </g>
    </g>
   </g>
  </g>
  <g id="axes_2">
   <g id="matplotlib.axis_3">
    <g id="ytick_6">
     <g id="line2d_26">
      <defs>
       <path id="m2eb157af7c" d="M 0 0 
L 3.5 0 
" style="stroke: #ffffff; stroke-width: 0.8"/>
      </defs>
      <g>
       <use xlink:href="#m2eb157af7c" x="957.63625" y="484.575646" style="fill: #ffffff; stroke: #ffffff; stroke-width: 0.8"/>
      </g>
     </g>
     <g id="text_18">
      <!-- 4 -->
      <g style="fill: #ff6666" transform="translate(964.63625 488.374865) scale(0.1 -0.1)">
       <use xlink:href="#DejaVuSans-34"/>
      </g>
     </g>
    </g>
    <g id="ytick_7">
     <g id="line2d_27">
      <g>
       <use xlink:href="#m2eb157af7c" x="957.63625" y="409.412648" style="fill: #ffffff; stroke: #ffffff; stroke-width: 0.8"/>
      </g>
     </g>
     <g id="text_19">
      <!-- 6 -->
      <g style="fill: #ff6666" transform="translate(964.63625 413.211866) scale(0.1 -0.1)">
       <use xlink:href="#DejaVuSans-36"/>
      </g>
     </g>
    </g>
    <g id="ytick_8">
     <g id="line2d_28">
      <g>
       <use xlink:href="#m2eb157af7c" x="957.63625" y="334.249649" style="fill: #ffffff; stroke: #ffffff; stroke-width: 0.8"/>
      </g>
     </g>
     <g id="text_20">
      <!-- 8 -->
      <g style="fill: #ff6666" transform="translate(964.63625 338.048868) scale(0.1 -0.1)">
       <use xlink:href="#DejaVuSans-38"/>
      </g>
     </g>
    </g>
    <g id="ytick_9">
     <g id="line2d_29">
      <g>
       <use xlink:href="#m2eb157af7c" x="957.63625" y="259.086651" style="fill: #ffffff; stroke: #ffffff; stroke-width: 0.8"/>
      </g>
     </g>
     <g id="text_21">
      <!-- 10 -->
      <g style="fill: #ff6666" transform="translate(964.63625 262.885869) scale(0.1 -0.1)">
       <use xlink:href="#DejaVuSans-31"/>
       <use xlink:href="#DejaVuSans-30" x="63.623047"/>
      </g>
     </g>
    </g>
    <g id="ytick_10">
     <g id="line2d_30">
      <g>
       <use xlink:href="#m2eb157af7c" x="957.63625" y="183.923652" style="fill: #ffffff; stroke: #ffffff; stroke-width: 0.8"/>
      </g>
     </g>
     <g id="text_22">
      <!-- 12 -->
      <g style="fill: #ff6666" transform="translate(964.63625 187.722871) scale(0.1 -0.1)">
       <use xlink:href="#DejaVuSans-31"/>
       <use xlink:href="#DejaVuSans-32" x="63.623047"/>
      </g>
     </g>
    </g>
    <g id="ytick_11">
     <g id="line2d_31">
      <g>
       <use xlink:href="#m2eb157af7c" x="957.63625" y="108.760654" style="fill: #ffffff; stroke: #ffffff; stroke-width: 0.8"/>
      </g>
     </g>
     <g id="text_23">
      <!-- 14 -->
      <g style="fill: #ff6666" transform="translate(964.63625 112.559873) scale(0.1 -0.1)">
       <use xlink:href="#DejaVuSans-31"/>
       <use xlink:href="#DejaVuSans-34" x="63.623047"/>
      </g>
     </g>
    </g>
    <g id="text_24">
     <!-- Unemployment Rate (%) -->
     <g style="fill: #ff6666" transform="translate(990.479375 366.980937) rotate(-90) scale(0.12 -0.12)">
      <defs>
       <path id="DejaVuSans-25" d="M 4653 2053 
Q 4381 2053 4226 1822 
Q 4072 1591 4072 1178 
Q 4072 772 4226 539 
Q 4381 306 4653 306 
Q 4919 306 5073 539 
Q 5228 772 5228 1178 
Q 5228 1588 5073 1820 
Q 4919 2053 4653 2053 
z
M 4653 2450 
Q 5147 2450 5437 2106 
Q 5728 1763 5728 1178 
Q 5728 594 5436 251 
Q 5144 -91 4653 -91 
Q 4153 -91 3862 251 
Q 3572 594 3572 1178 
Q 3572 1766 3864 2108 
Q 4156 2450 4653 2450 
z
M 1428 4353 
Q 1159 4353 1004 4120 
Q 850 3888 850 3481 
Q 850 3069 1003 2837 
Q 1156 2606 1428 2606 
Q 1700 2606 1854 2837 
Q 2009 3069 2009 3481 
Q 2009 3884 1853 4118 
Q 1697 4353 1428 4353 
z
M 4250 4750 
L 4750 4750 
L 1831 -91 
L 1331 -91 
L 4250 4750 
z
M 1428 4750 
Q 1922 4750 2215 4408 
Q 2509 4066 2509 3481 
Q 2509 2891 2217 2550 
Q 1925 2209 1428 2209 
Q 931 2209 642 2551 
Q 353 2894 353 3481 
Q 353 4063 643 4406 
Q 934 4750 1428 4750 
z
" transform="scale(0.015625)"/>
      </defs>
      <use xlink:href="#DejaVuSans-55"/>
      <use xlink:href="#DejaVuSans-6e" x="73.193359"/>
      <use xlink:href="#DejaVuSans-65" x="136.572266"/>
      <use xlink:href="#DejaVuSans-6d" x="198.095703"/>
      <use xlink:href="#DejaVuSans-70" x="295.507812"/>
      <use xlink:href="#DejaVuSans-6c" x="358.984375"/>
      <use xlink:href="#DejaVuSans-6f" x="386.767578"/>
      <use xlink:href="#DejaVuSans-79" x="447.949219"/>
      <use xlink:href="#DejaVuSans-6d" x="507.128906"/>
      <use xlink:href="#DejaVuSans-65" x="604.541016"/>
      <use xlink:href="#DejaVuSans-6e" x="666.064453"/>
      <use xlink:href="#DejaVuSans-74" x="729.443359"/>
      <use xlink:href="#DejaVuSans-20" x="768.652344"/>
      <use xlink:href="#DejaVuSans-52" x="800.439453"/>
      <use xlink:href="#DejaVuSans-61" x="867.671875"/>
      <use xlink:href="#DejaVuSans-74" x="928.951172"/>
      <use xlink:href="#DejaVuSans-65" x="968.160156"/>
      <use xlink:href="#DejaVuSans-20" x="1029.683594"/>
      <use xlink:href="#DejaVuSans-28" x="1061.470703"/>
      <use xlink:href="#DejaVuSans-25" x="1100.484375"/>
      <use xlink:href="#DejaVuSans-29" x="1195.503906"/>
     </g>
    </g>
   </g>
   <g id="line2d_32">
    <path d="M 90.207386 435.719697 
L 93.570271 431.961547 
L 96.607716 439.477847 
L 99.9706 439.477847 
L 106.58789 446.994147 
L 109.842295 446.994147 
L 113.205179 450.752297 
L 116.568064 446.994147 
L 123.185354 446.994147 
L 126.439758 450.752297 
L 129.802643 458.268596 
L 133.165528 454.510447 
L 136.202972 458.268596 
L 139.565857 458.268596 
L 142.820262 462.026746 
L 146.183147 462.026746 
L 149.437551 458.268596 
L 152.800436 458.268596 
L 156.163321 465.784896 
L 159.417726 469.543046 
L 162.780611 465.784896 
L 166.035015 469.543046 
L 169.3979 462.026746 
L 172.760785 465.784896 
L 175.798229 469.543046 
L 179.161114 465.784896 
L 182.415519 469.543046 
L 185.778404 462.026746 
L 189.032808 458.268596 
L 192.395693 462.026746 
L 195.758578 458.268596 
L 202.375867 458.268596 
L 205.630272 446.994147 
L 208.993157 446.994147 
L 212.356042 450.752297 
L 215.501966 443.235997 
L 218.864851 446.994147 
L 222.119256 431.961547 
L 228.736545 416.928947 
L 232.09943 405.654498 
L 235.462315 405.654498 
L 238.716719 390.621898 
L 242.079604 379.347448 
L 248.696894 341.765949 
L 252.059779 322.975199 
L 255.097223 307.9426 
L 258.460108 296.66815 
L 261.714512 281.63555 
L 265.077397 277.8774 
L 268.331802 277.8774 
L 271.694687 274.11925 
L 278.311976 259.086651 
L 281.674861 262.844801 
L 284.929266 262.844801 
L 288.292151 266.602951 
L 291.655035 266.602951 
L 294.69248 262.844801 
L 298.055365 262.844801 
L 301.309769 274.11925 
L 304.672654 281.63555 
L 307.927059 281.63555 
L 311.289944 277.8774 
L 314.652828 277.8774 
L 317.907233 281.63555 
L 321.270118 266.602951 
L 324.524523 285.3937 
L 327.887407 292.91 
L 331.250292 296.66815 
L 334.287737 296.66815 
L 337.650621 292.91 
L 340.905026 296.66815 
L 344.267911 292.91 
L 347.522316 296.66815 
L 354.248085 296.66815 
L 360.865375 311.70075 
L 364.119779 315.4589 
L 367.482664 322.975199 
L 370.845549 322.975199 
L 373.991474 326.733349 
L 387.226053 326.733349 
L 390.588937 330.491499 
L 393.951822 341.765949 
L 397.206227 341.765949 
L 400.569112 345.524099 
L 403.823516 338.007799 
L 407.186401 334.249649 
L 410.549286 345.524099 
L 413.58673 353.040399 
L 416.949615 349.282249 
L 420.20402 353.040399 
L 423.566905 353.040399 
L 426.821309 360.556699 
L 430.184194 364.314848 
L 436.801484 364.314848 
L 440.164369 375.589298 
L 443.418773 383.105598 
L 446.781658 386.863748 
L 450.144543 383.105598 
L 453.181987 383.105598 
L 456.544872 401.896348 
L 459.799277 398.138198 
L 463.162162 405.654498 
L 466.416566 401.896348 
L 469.779451 405.654498 
L 476.396741 420.687097 
L 479.759625 416.928947 
L 483.01403 424.445247 
L 486.376915 420.687097 
L 489.7398 428.203397 
L 492.777244 431.961547 
L 496.140129 431.961547 
L 499.394534 424.445247 
L 502.757418 435.719697 
L 509.374708 443.235997 
L 512.737593 446.994147 
L 515.991997 446.994147 
L 519.354882 443.235997 
L 522.609287 446.994147 
L 525.972172 454.510447 
L 529.335056 450.752297 
L 532.480981 446.994147 
L 535.843866 443.235997 
L 539.09827 454.510447 
L 542.461155 450.752297 
L 545.71556 454.510447 
L 552.44133 446.994147 
L 555.695734 450.752297 
L 559.058619 458.268596 
L 565.675909 458.268596 
L 569.038793 462.026746 
L 572.076238 469.543046 
L 578.693527 469.543046 
L 582.056412 473.301196 
L 585.310817 473.301196 
L 588.673702 469.543046 
L 595.290991 477.059346 
L 598.653876 477.059346 
L 605.271165 484.575646 
L 608.63405 480.817496 
L 611.671495 484.575646 
L 615.034379 484.575646 
L 618.288784 492.091946 
L 621.651669 484.575646 
L 624.906074 492.091946 
L 628.268958 492.091946 
L 631.631843 495.850096 
L 634.886248 492.091946 
L 638.249133 492.091946 
L 644.866422 484.575646 
L 648.229307 492.091946 
L 651.266751 492.091946 
L 657.884041 499.608246 
L 661.246926 499.608246 
L 664.50133 495.850096 
L 671.2271 503.366396 
L 674.481505 499.608246 
L 684.461679 499.608246 
L 687.824564 503.366396 
L 690.970488 469.543046 
L 694.333373 78.695455 
L 697.587778 138.825853 
L 700.950663 221.505152 
L 704.205067 251.570351 
L 707.567952 319.217049 
L 710.930837 341.765949 
L 714.185242 375.589298 
L 717.548127 383.105598 
L 720.802531 383.105598 
L 724.165416 394.380048 
L 727.528301 401.896348 
L 730.565745 405.654498 
L 733.92863 405.654498 
L 737.183035 416.928947 
L 740.54592 413.170797 
L 743.800324 431.961547 
L 747.163209 443.235997 
L 750.526094 458.268596 
L 753.780499 465.784896 
L 760.397788 488.333796 
L 763.760673 484.575646 
L 767.123558 492.091946 
L 770.161002 495.850096 
L 773.523887 495.850096 
L 776.778292 499.608246 
L 780.141176 499.608246 
L 783.395581 503.366396 
L 786.758466 499.608246 
L 790.121351 503.366396 
L 793.375755 499.608246 
L 796.73864 499.608246 
L 799.993045 503.366396 
L 803.35593 503.366396 
L 806.718815 499.608246 
L 809.756259 503.366396 
L 813.119144 507.124545 
L 816.373548 499.608246 
L 819.736433 499.608246 
L 822.990838 503.366396 
L 826.353723 495.850096 
L 832.971012 488.333796 
L 836.333897 495.850096 
L 839.588302 492.091946 
L 842.951187 495.850096 
L 846.314071 488.333796 
L 852.822881 488.333796 
L 862.694575 477.059346 
L 866.05746 477.059346 
L 869.420344 480.817496 
L 872.674749 480.817496 
L 876.037634 477.059346 
L 882.654923 484.575646 
L 886.017808 480.817496 
L 889.055253 477.059346 
L 895.672542 477.059346 
L 899.035427 480.817496 
L 905.652716 473.301196 
L 905.652716 473.301196 
" clip-path="url(#pe4f3b12f0e)" style="fill: none; stroke-dasharray: 7.4,3.2; stroke-dashoffset: 0; stroke: #ff6666; stroke-width: 2"/>
   </g>
   <g id="patch_13">
    <path d="M 48.90125 528.546 
L 48.90125 57.274 
" style="fill: none; stroke: #ffffff; stroke-width: 0.8; stroke-linejoin: miter; stroke-linecap: square"/>
   </g>
   <g id="patch_14">
    <path d="M 957.63625 528.546 
L 957.63625 57.274 
" style="fill: none; stroke: #ffffff; stroke-width: 0.8; stroke-linejoin: miter; stroke-linecap: square"/>
   </g>
   <g id="patch_15">
    <path d="M 48.90125 528.546 
L 957.63625 528.546 
" style="fill: none; stroke: #ffffff; stroke-width: 0.8; stroke-linejoin: miter; stroke-linecap: square"/>
   </g>
   <g id="patch_16">
    <path d="M 48.90125 57.274 
L 957.63625 57.274 
" style="fill: none; stroke: #ffffff; stroke-width: 0.8; stroke-linejoin: miter; stroke-linecap: square"/>
   </g>
   <g id="text_25">
    <!-- Decoupling of Stock Market and Unemployment -->
    <g style="fill: #ffffff" transform="translate(311.54625 19.3575) scale(0.16 -0.16)">
     <defs>
      <path id="DejaVuSans-44" d="M 1259 4147 
L 1259 519 
L 2022 519 
Q 2988 519 3436 956 
Q 3884 1394 3884 2338 
Q 3884 3275 3436 3711 
Q 2988 4147 2022 4147 
L 1259 4147 
z
M 628 4666 
L 1925 4666 
Q 3281 4666 3915 4102 
Q 4550 3538 4550 2338 
Q 4550 1131 3912 565 
Q 3275 0 1925 0 
L 628 0 
L 628 4666 
z
" transform="scale(0.015625)"/>
      <path id="DejaVuSans-67" d="M 2906 1791 
Q 2906 2416 2648 2759 
Q 2391 3103 1925 3103 
Q 1463 3103 1205 2759 
Q 947 2416 947 1791 
Q 947 1169 1205 825 
Q 1463 481 1925 481 
Q 2391 481 2648 825 
Q 2906 1169 2906 1791 
z
M 3481 434 
Q 3481 -459 3084 -895 
Q 2688 -1331 1869 -1331 
Q 1566 -1331 1297 -1286 
Q 1028 -1241 775 -1147 
L 775 -588 
Q 1028 -725 1275 -790 
Q 1522 -856 1778 -856 
Q 2344 -856 2625 -561 
Q 2906 -266 2906 331 
L 2906 616 
Q 2728 306 2450 153 
Q 2172 0 1784 0 
Q 1141 0 747 490 
Q 353 981 353 1791 
Q 353 2603 747 3093 
Q 1141 3584 1784 3584 
Q 2172 3584 2450 3431 
Q 2728 3278 2906 2969 
L 2906 3500 
L 3481 3500 
L 3481 434 
z
" transform="scale(0.015625)"/>
      <path id="DejaVuSans-66" d="M 2375 4863 
L 2375 4384 
L 1825 4384 
Q 1516 4384 1395 4259 
Q 1275 4134 1275 3809 
L 1275 3500 
L 2222 3500 
L 2222 3053 
L 1275 3053 
L 1275 0 
L 697 0 
L 697 3053 
L 147 3053 
L 147 3500 
L 697 3500 
L 697 3744 
Q 697 4328 969 4595 
Q 1241 4863 1831 4863 
L 2375 4863 
z
" transform="scale(0.015625)"/>
     </defs>
     <use xlink:href="#DejaVuSans-44"/>
     <use xlink:href="#DejaVuSans-65" x="77.001953"/>
     <use xlink:href="#DejaVuSans-63" x="138.525391"/>
     <use xlink:href="#DejaVuSans-6f" x="193.505859"/>
     <use xlink:href="#DejaVuSans-75" x="254.6875"/>
     <use xlink:href="#DejaVuSans-70" x="318.066406"/>
     <use xlink:href="#DejaVuSans-6c" x="381.542969"/>
     <use xlink:href="#DejaVuSans-69" x="409.326172"/>
     <use xlink:href="#DejaVuSans-6e" x="437.109375"/>
     <use xlink:href="#DejaVuSans-67" x="500.488281"/>
     <use xlink:href="#DejaVuSans-20" x="563.964844"/>
     <use xlink:href="#DejaVuSans-6f" x="595.751953"/>
     <use xlink:href="#DejaVuSans-66" x="656.933594"/>
     <use xlink:href="#DejaVuSans-20" x="692.138672"/>
     <use xlink:href="#DejaVuSans-53" x="723.925781"/>
     <use xlink:href="#DejaVuSans-74" x="787.402344"/>
     <use xlink:href="#DejaVuSans-6f" x="826.611328"/>
     <use xlink:href="#DejaVuSans-63" x="887.792969"/>
     <use xlink:href="#DejaVuSans-6b" x="942.773438"/>
     <use xlink:href="#DejaVuSans-20" x="1000.683594"/>
     <use xlink:href="#DejaVuSans-4d" x="1032.470703"/>
     <use xlink:href="#DejaVuSans-61" x="1118.75"/>
     <use xlink:href="#DejaVuSans-72" x="1180.029297"/>
     <use xlink:href="#DejaVuSans-6b" x="1221.142578"/>
     <use xlink:href="#DejaVuSans-65" x="1275.427734"/>
     <use xlink:href="#DejaVuSans-74" x="1336.951172"/>
     <use xlink:href="#DejaVuSans-20" x="1376.160156"/>
     <use xlink:href="#DejaVuSans-61" x="1407.947266"/>
     <use xlink:href="#DejaVuSans-6e" x="1469.226562"/>
     <use xlink:href="#DejaVuSans-64" x="1532.605469"/>
     <use xlink:href="#DejaVuSans-20" x="1596.082031"/>
     <use xlink:href="#DejaVuSans-55" x="1627.869141"/>
     <use xlink:href="#DejaVuSans-6e" x="1701.0625"/>
     <use xlink:href="#DejaVuSans-65" x="1764.441406"/>
     <use xlink:href="#DejaVuSans-6d" x="1825.964844"/>
     <use xlink:href="#DejaVuSans-70" x="1923.376953"/>
     <use xlink:href="#DejaVuSans-6c" x="1986.853516"/>
     <use xlink:href="#DejaVuSans-6f" x="2014.636719"/>
     <use xlink:href="#DejaVuSans-79" x="2075.818359"/>
     <use xlink:href="#DejaVuSans-6d" x="2134.998047"/>
     <use xlink:href="#DejaVuSans-65" x="2232.410156"/>
     <use xlink:href="#DejaVuSans-6e" x="2293.933594"/>
     <use xlink:href="#DejaVuSans-74" x="2357.3125"/>
    </g>
    <!-- S&amp;P 500 vs. Unemployment Rate (2005-2025) -->
    <g style="fill: #ffffff" transform="translate(318.01875 37.274) scale(0.16 -0.16)">
     <defs>
      <path id="DejaVuSans-2e" d="M 684 794 
L 1344 794 
L 1344 0 
L 684 0 
L 684 794 
z
" transform="scale(0.015625)"/>
     </defs>
     <use xlink:href="#DejaVuSans-53"/>
     <use xlink:href="#DejaVuSans-26" x="63.476562"/>
     <use xlink:href="#DejaVuSans-50" x="141.455078"/>
     <use xlink:href="#DejaVuSans-20" x="201.757812"/>
     <use xlink:href="#DejaVuSans-35" x="233.544922"/>
     <use xlink:href="#DejaVuSans-30" x="297.167969"/>
     <use xlink:href="#DejaVuSans-30" x="360.791016"/>
     <use xlink:href="#DejaVuSans-20" x="424.414062"/>
     <use xlink:href="#DejaVuSans-76" x="456.201172"/>
     <use xlink:href="#DejaVuSans-73" x="515.380859"/>
     <use xlink:href="#DejaVuSans-2e" x="567.480469"/>
     <use xlink:href="#DejaVuSans-20" x="599.267578"/>
     <use xlink:href="#DejaVuSans-55" x="631.054688"/>
     <use xlink:href="#DejaVuSans-6e" x="704.248047"/>
     <use xlink:href="#DejaVuSans-65" x="767.626953"/>
     <use xlink:href="#DejaVuSans-6d" x="829.150391"/>
     <use xlink:href="#DejaVuSans-70" x="926.5625"/>
     <use xlink:href="#DejaVuSans-6c" x="990.039062"/>
     <use xlink:href="#DejaVuSans-6f" x="1017.822266"/>
     <use xlink:href="#DejaVuSans-79" x="1079.003906"/>
     <use xlink:href="#DejaVuSans-6d" x="1138.183594"/>
     <use xlink:href="#DejaVuSans-65" x="1235.595703"/>
     <use xlink:href="#DejaVuSans-6e" x="1297.119141"/>
     <use xlink:href="#DejaVuSans-74" x="1360.498047"/>
     <use xlink:href="#DejaVuSans-20" x="1399.707031"/>
     <use xlink:href="#DejaVuSans-52" x="1431.494141"/>
     <use xlink:href="#DejaVuSans-61" x="1498.726562"/>
     <use xlink:href="#DejaVuSans-74" x="1560.005859"/>
     <use xlink:href="#DejaVuSans-65" x="1599.214844"/>
     <use xlink:href="#DejaVuSans-20" x="1660.738281"/>
     <use xlink:href="#DejaVuSans-28" x="1692.525391"/>
     <use xlink:href="#DejaVuSans-32" x="1731.539062"/>
     <use xlink:href="#DejaVuSans-30" x="1795.162109"/>
     <use xlink:href="#DejaVuSans-30" x="1858.785156"/>
     <use xlink:href="#DejaVuSans-35" x="1922.408203"/>
     <use xlink:href="#DejaVuSans-2d" x="1986.03125"/>
     <use xlink:href="#DejaVuSans-32" x="2022.115234"/>
     <use xlink:href="#DejaVuSans-30" x="2085.738281"/>
     <use xlink:href="#DejaVuSans-32" x="2149.361328"/>
     <use xlink:href="#DejaVuSans-35" x="2212.984375"/>
     <use xlink:href="#DejaVuSans-29" x="2276.607422"/>
    </g>
   </g>
  </g>
 </g>
 <defs>
  <clipPath id="pe4f3b12f0e">
   <rect x="48.90125" y="57.274" width="908.735" height="471.272"/>
  </clipPath>
 </defs>
</svg>
